<svg width="80" height="72" viewBox="0 0 80 72" fill="none" xmlns="http://www.w3.org/2000/svg">
<path fill-rule="evenodd" clip-rule="evenodd" d="M13.3877 39.8366L26.6952 31.8854L13.3877 55.7391V39.8366Z" fill="#FF0000"/>
<path fill-rule="evenodd" clip-rule="evenodd" d="M40.0016 39.8366V55.7391L26.6941 47.7878L26.6941 31.8854L40.0016 39.8366Z" fill="#8B0000"/>
<path fill-rule="evenodd" clip-rule="evenodd" d="M53.3089 31.8854L40.0015 55.7391V39.8366L53.3089 31.8854Z" fill="#FF0000"/>
<path fill-rule="evenodd" clip-rule="evenodd" d="M53.3089 31.8854V47.7878L40.0015 55.7391L53.3089 31.8854Z" fill="#CF0000"/>
<path fill-rule="evenodd" clip-rule="evenodd" d="M53.3086 31.8854L66.6161 39.8366V55.7391L53.3086 47.7878V31.8854Z" fill="#8B0000"/>
<path fill-rule="evenodd" clip-rule="evenodd" d="M26.6947 15.9829L13.3872 23.9341L26.6947 31.8854L40.0021 23.9341L26.6947 15.9829Z" fill="#D8D8D8"/>
<path fill-rule="evenodd" clip-rule="evenodd" d="M40.0018 23.9341L26.6943 31.8853L40.0018 39.8366L53.3093 31.8853L40.0018 23.9341Z" fill="#D8D8D8"/>
<path fill-rule="evenodd" clip-rule="evenodd" d="M40.0017 23.9341L53.3092 15.9829L66.6166 23.9341L53.3092 31.8854L40.0017 23.9341Z" fill="#D8D8D8"/>
<path fill-rule="evenodd" clip-rule="evenodd" d="M13.3877 23.9341L26.6952 31.8853L13.3877 39.8366V23.9341Z" fill="#474747"/>
<path fill-rule="evenodd" clip-rule="evenodd" d="M66.6158 23.9341V39.8366L53.3083 31.8853L66.6158 23.9341Z" fill="#ABABAB"/>
<path fill-rule="evenodd" clip-rule="evenodd" d="M26.6946 31.8854L26.6947 47.7878L13.3872 55.7391L26.6946 31.8854Z" fill="#CF0000"/>
</svg>
